<svg xmlns="http://www.w3.org/2000/svg" viewBox="0 0 24 24" fill="#ff6b35">
  <path d="M22 12.2c0-1-0.8-1.9-1.9-1.9-0.5 0-1 0.2-1.4 0.6-1.4-1-3.3-1.6-5.4-1.6-2.1 0-4 0.6-5.4 1.6-0.4-0.4-0.9-0.6-1.4-0.6C4.8 10.3 4 11.2 4 12.2c0 0.7 0.4 1.3 1 1.7 0 0.1 0 0.2 0 0.3 0 2.7 3.6 4.9 8 4.9s8-2.2 8-4.9c0-0.1 0-0.2 0-0.3 0.6-0.3 1-1 1-1.7zm-13.4 1c-0.6 0-1.1-0.5-1.1-1.1s0.5-1.1 1.1-1.1 1.1 0.5 1.1 1.1-0.5 1.1-1.1 1.1zm6.8 2.9c-1.2 0.8-3.8 0.8-5 0-0.2-0.1-0.3-0.4-0.2-0.6s0.4-0.3 0.6-0.2c0.9 0.6 3.2 0.6 4.2 0 0.2-0.1 0.5 0 0.6 0.2s0 0.5-0.2 0.6zm0.6-1.8c-0.6 0-1.1-0.5-1.1-1.1s0.5-1.1 1.1-1.1 1.1 0.5 1.1 1.1-0.5 1.1-1.1 1.1z"/>
</svg>
